<svg width="298" height="253" viewBox="0 0 298 253" fill="none" xmlns="http://www.w3.org/2000/svg">
<g filter="url(#filter0_d_316_1836)">
<g filter="url(#filter1_i_316_1836)">
<path d="M147.438 201.147H136.43C134.195 201.147 132.356 202.958 132.384 205.194V216.201C132.384 218.437 134.195 220.248 136.43 220.248H137.132C137.609 221.099 138.304 221.807 139.146 222.3C139.987 222.792 140.945 223.052 141.92 223.052C142.895 223.052 143.853 222.792 144.695 222.3C145.536 221.807 146.231 221.099 146.708 220.248H147.438C149.674 220.248 151.485 218.437 151.485 216.201V205.194C151.485 202.958 149.674 201.147 147.438 201.147Z" fill="#9B9B9B"/>
</g>
<g filter="url(#filter2_iii_316_1836)">
<path d="M148.881 203.581C149.561 203.581 150.098 203.071 150.155 202.421C150.353 199.987 151.4 194.073 157.116 187.734C159.844 185.586 162.084 182.884 163.689 179.806C165.294 176.728 166.227 173.344 166.426 169.878C166.483 169.199 166.511 168.746 166.511 168.463V168.18C166.341 154.654 155.39 143.787 141.892 143.787C135.414 143.787 129.197 146.343 124.593 150.9C119.989 155.456 117.368 161.646 117.301 168.124C117.301 168.124 117.273 168.803 117.386 169.935C117.839 177.122 121.348 183.489 126.696 187.706C132.412 194.073 133.544 199.987 133.742 202.421C133.799 203.071 134.336 203.581 135.016 203.581H148.881Z" fill="#EE2FFF"/>
</g>
<path d="M147.369 200.383C147.955 200.383 148.418 199.949 148.467 199.394C148.638 197.321 149.541 192.283 154.471 186.883C156.824 185.054 158.756 182.752 160.14 180.13C161.524 177.507 162.329 174.625 162.501 171.672C162.55 171.094 162.574 170.708 162.574 170.467V170.226C162.428 158.703 152.982 149.447 141.34 149.447C135.753 149.446 130.391 151.623 126.42 155.505C122.448 159.387 120.188 164.66 120.13 170.178C120.13 170.178 120.106 170.756 120.204 171.721C120.594 177.844 123.621 183.267 128.234 186.859C133.164 192.283 134.14 197.321 134.311 199.394C134.36 199.949 134.823 200.383 135.409 200.383H147.369Z" fill="white" fill-opacity="0.01"/>
<g filter="url(#filter3_f_316_1836)">
<path d="M141.92 168.407C146.504 168.407 150.24 172.114 150.296 176.698V176.925C150.296 177.009 150.296 177.123 150.268 177.292C150.127 179.669 148.966 181.905 147.099 183.377L146.901 183.518L146.731 183.688C143.618 187.14 142.967 195.912 142.854 200.723H141.015C140.873 195.912 140.194 187.14 137.081 183.688L136.911 183.518L136.713 183.377C135.779 182.637 135.012 181.707 134.466 180.648C133.919 179.589 133.605 178.426 133.544 177.236C133.544 177.123 133.516 177.038 133.516 176.981V176.727C133.601 172.142 137.364 168.407 141.92 168.407ZM141.92 165.577C139.592 165.578 137.321 166.304 135.424 167.655C133.527 169.006 132.098 170.914 131.336 173.114C130.574 175.314 130.515 177.697 131.17 179.932C131.824 182.167 133.158 184.142 134.987 185.584C138.383 189.376 138.213 203.581 138.213 203.581H145.684C145.684 203.581 145.457 189.376 148.881 185.612C151.315 183.688 152.928 180.773 153.126 177.462C153.154 177.151 153.154 176.953 153.154 176.811V176.698C153.124 173.739 151.927 170.911 149.823 168.828C147.72 166.746 144.88 165.578 141.92 165.577Z" fill="white"/>
</g>
<path d="M151.728 209.019C151.913 208.989 152.091 208.923 152.25 208.824C152.409 208.725 152.547 208.596 152.656 208.443C152.765 208.291 152.842 208.118 152.884 207.935C152.925 207.752 152.93 207.563 152.898 207.379C152.866 207.194 152.797 207.017 152.696 206.86C152.595 206.702 152.464 206.565 152.309 206.459C152.155 206.352 151.982 206.277 151.798 206.238C151.615 206.199 151.426 206.197 151.241 206.232L132.169 209.571C131.985 209.603 131.81 209.67 131.653 209.77C131.496 209.87 131.36 209.999 131.253 210.151C131.146 210.304 131.071 210.475 131.03 210.657C130.989 210.838 130.985 211.026 131.017 211.209C131.049 211.392 131.117 211.568 131.216 211.725C131.316 211.882 131.445 212.017 131.598 212.124C131.75 212.231 131.921 212.307 132.103 212.348C132.284 212.388 132.472 212.393 132.655 212.361L151.728 209.019ZM151.587 215.103C151.942 215.024 152.253 214.811 152.455 214.508C152.657 214.206 152.735 213.837 152.672 213.478C152.61 213.12 152.411 212.799 152.118 212.583C151.826 212.367 151.461 212.273 151.1 212.318L132.282 215.629C132.093 215.654 131.91 215.717 131.746 215.815C131.582 215.912 131.439 216.041 131.326 216.195C131.213 216.349 131.133 216.525 131.089 216.71C131.046 216.896 131.041 217.089 131.074 217.277C131.107 217.465 131.178 217.644 131.282 217.804C131.386 217.964 131.521 218.101 131.68 218.208C131.839 218.314 132.017 218.387 132.205 218.422C132.392 218.458 132.585 218.455 132.771 218.414L151.587 215.103Z" fill="#D3D3D3"/>
</g>
<g filter="url(#filter4_dddddd_316_1836)">
<ellipse cx="101.314" cy="132.827" rx="14.1489" ry="2.82979" transform="rotate(42.7243 101.314 132.827)" fill="url(#paint0_radial_316_1836)"/>
</g>
<g filter="url(#filter5_dddddd_316_1836)">
<ellipse cx="140.78" cy="121.293" rx="14.1489" ry="2.82979" transform="rotate(86.5583 140.78 121.293)" fill="url(#paint1_radial_316_1836)"/>
</g>
<g filter="url(#filter6_dddddd_316_1836)">
<ellipse cx="179.245" cy="134.606" rx="14.1489" ry="2.82979" transform="rotate(143.872 179.245 134.606)" fill="url(#paint2_radial_316_1836)"/>
</g>
<defs>
<filter id="filter0_d_316_1836" x="92.2979" y="122.787" width="99.2131" height="129.265" filterUnits="userSpaceOnUse" color-interpolation-filters="sRGB">
<feFlood flood-opacity="0" result="BackgroundImageFix"/>
<feColorMatrix in="SourceAlpha" type="matrix" values="0 0 0 0 0 0 0 0 0 0 0 0 0 0 0 0 0 0 127 0" result="hardAlpha"/>
<feOffset dy="4"/>
<feGaussianBlur stdDeviation="12.5"/>
<feComposite in2="hardAlpha" operator="out"/>
<feColorMatrix type="matrix" values="0 0 0 0 0.480239 0 0 0 0 0.296875 0 0 0 0 0.7125 0 0 0 1 0"/>
<feBlend mode="normal" in2="BackgroundImageFix" result="effect1_dropShadow_316_1836"/>
<feBlend mode="normal" in="SourceGraphic" in2="effect1_dropShadow_316_1836" result="shape"/>
</filter>
<filter id="filter1_i_316_1836" x="132.383" y="201.147" width="30.4205" height="33.2244" filterUnits="userSpaceOnUse" color-interpolation-filters="sRGB">
<feFlood flood-opacity="0" result="BackgroundImageFix"/>
<feBlend mode="normal" in="SourceGraphic" in2="BackgroundImageFix" result="shape"/>
<feColorMatrix in="SourceAlpha" type="matrix" values="0 0 0 0 0 0 0 0 0 0 0 0 0 0 0 0 0 0 127 0" result="hardAlpha"/>
<feOffset dx="11.3192" dy="11.3192"/>
<feGaussianBlur stdDeviation="5.65958"/>
<feComposite in2="hardAlpha" operator="arithmetic" k2="-1" k3="1"/>
<feColorMatrix type="matrix" values="0 0 0 0 0 0 0 0 0 0 0 0 0 0 0 0 0 0 0.25 0"/>
<feBlend mode="normal" in2="shape" result="effect1_innerShadow_316_1836"/>
</filter>
<filter id="filter2_iii_316_1836" x="114.468" y="138.128" width="57.7025" height="73.9424" filterUnits="userSpaceOnUse" color-interpolation-filters="sRGB">
<feFlood flood-opacity="0" result="BackgroundImageFix"/>
<feBlend mode="normal" in="SourceGraphic" in2="BackgroundImageFix" result="shape"/>
<feColorMatrix in="SourceAlpha" type="matrix" values="0 0 0 0 0 0 0 0 0 0 0 0 0 0 0 0 0 0 127 0" result="hardAlpha"/>
<feOffset dx="5.65958" dy="11.3192"/>
<feGaussianBlur stdDeviation="4.24468"/>
<feComposite in2="hardAlpha" operator="arithmetic" k2="-1" k3="1"/>
<feColorMatrix type="matrix" values="0 0 0 0 1 0 0 0 0 1 0 0 0 0 1 0 0 0 0.45 0"/>
<feBlend mode="normal" in2="shape" result="effect1_innerShadow_316_1836"/>
<feColorMatrix in="SourceAlpha" type="matrix" values="0 0 0 0 0 0 0 0 0 0 0 0 0 0 0 0 0 0 127 0" result="hardAlpha"/>
<feOffset dy="-5.65958"/>
<feGaussianBlur stdDeviation="8.48936"/>
<feComposite in2="hardAlpha" operator="arithmetic" k2="-1" k3="1"/>
<feColorMatrix type="matrix" values="0 0 0 0 0 0 0 0 0 0 0 0 0 0 0 0 0 0 0.25 0"/>
<feBlend mode="normal" in2="effect1_innerShadow_316_1836" result="effect2_innerShadow_316_1836"/>
<feColorMatrix in="SourceAlpha" type="matrix" values="0 0 0 0 0 0 0 0 0 0 0 0 0 0 0 0 0 0 127 0" result="hardAlpha"/>
<feOffset dx="-2.82979" dy="-5.65958"/>
<feGaussianBlur stdDeviation="5.65958"/>
<feComposite in2="hardAlpha" operator="arithmetic" k2="-1" k3="1"/>
<feColorMatrix type="matrix" values="0 0 0 0 0 0 0 0 0 0 0 0 0 0 0 0 0 0 0.03 0"/>
<feBlend mode="normal" in2="effect2_innerShadow_316_1836" result="effect3_innerShadow_316_1836"/>
</filter>
<filter id="filter3_f_316_1836" x="128.718" y="163.577" width="26.4362" height="42.0042" filterUnits="userSpaceOnUse" color-interpolation-filters="sRGB">
<feFlood flood-opacity="0" result="BackgroundImageFix"/>
<feBlend mode="normal" in="SourceGraphic" in2="BackgroundImageFix" result="shape"/>
<feGaussianBlur stdDeviation="1" result="effect1_foregroundBlur_316_1836"/>
</filter>
<filter id="filter4_dddddd_316_1836" x="-16.2238" y="16.0367" width="235.076" height="233.58" filterUnits="userSpaceOnUse" color-interpolation-filters="sRGB">
<feFlood flood-opacity="0" result="BackgroundImageFix"/>
<feColorMatrix in="SourceAlpha" type="matrix" values="0 0 0 0 0 0 0 0 0 0 0 0 0 0 0 0 0 0 127 0" result="hardAlpha"/>
<feOffset/>
<feGaussianBlur stdDeviation="1.2734"/>
<feColorMatrix type="matrix" values="0 0 0 0 1 0 0 0 0 1 0 0 0 0 1 0 0 0 1 0"/>
<feBlend mode="normal" in2="BackgroundImageFix" result="effect1_dropShadow_316_1836"/>
<feColorMatrix in="SourceAlpha" type="matrix" values="0 0 0 0 0 0 0 0 0 0 0 0 0 0 0 0 0 0 127 0" result="hardAlpha"/>
<feOffset/>
<feGaussianBlur stdDeviation="2.54681"/>
<feColorMatrix type="matrix" values="0 0 0 0 1 0 0 0 0 1 0 0 0 0 1 0 0 0 1 0"/>
<feBlend mode="normal" in2="effect1_dropShadow_316_1836" result="effect2_dropShadow_316_1836"/>
<feColorMatrix in="SourceAlpha" type="matrix" values="0 0 0 0 0 0 0 0 0 0 0 0 0 0 0 0 0 0 127 0" result="hardAlpha"/>
<feOffset/>
<feGaussianBlur stdDeviation="8.91383"/>
<feColorMatrix type="matrix" values="0 0 0 0 1 0 0 0 0 1 0 0 0 0 1 0 0 0 1 0"/>
<feBlend mode="normal" in2="effect2_dropShadow_316_1836" result="effect3_dropShadow_316_1836"/>
<feColorMatrix in="SourceAlpha" type="matrix" values="0 0 0 0 0 0 0 0 0 0 0 0 0 0 0 0 0 0 127 0" result="hardAlpha"/>
<feOffset/>
<feGaussianBlur stdDeviation="17.8277"/>
<feColorMatrix type="matrix" values="0 0 0 0 1 0 0 0 0 1 0 0 0 0 1 0 0 0 1 0"/>
<feBlend mode="normal" in2="effect3_dropShadow_316_1836" result="effect4_dropShadow_316_1836"/>
<feColorMatrix in="SourceAlpha" type="matrix" values="0 0 0 0 0 0 0 0 0 0 0 0 0 0 0 0 0 0 127 0" result="hardAlpha"/>
<feOffset/>
<feGaussianBlur stdDeviation="30.5617"/>
<feColorMatrix type="matrix" values="0 0 0 0 1 0 0 0 0 1 0 0 0 0 1 0 0 0 1 0"/>
<feBlend mode="normal" in2="effect4_dropShadow_316_1836" result="effect5_dropShadow_316_1836"/>
<feColorMatrix in="SourceAlpha" type="matrix" values="0 0 0 0 0 0 0 0 0 0 0 0 0 0 0 0 0 0 127 0" result="hardAlpha"/>
<feOffset/>
<feGaussianBlur stdDeviation="53.483"/>
<feColorMatrix type="matrix" values="0 0 0 0 1 0 0 0 0 1 0 0 0 0 1 0 0 0 1 0"/>
<feBlend mode="normal" in2="effect5_dropShadow_316_1836" result="effect6_dropShadow_316_1836"/>
<feBlend mode="normal" in="SourceGraphic" in2="effect6_dropShadow_316_1836" result="shape"/>
</filter>
<filter id="filter5_dddddd_316_1836" x="30.8641" y="0.202988" width="219.833" height="242.181" filterUnits="userSpaceOnUse" color-interpolation-filters="sRGB">
<feFlood flood-opacity="0" result="BackgroundImageFix"/>
<feColorMatrix in="SourceAlpha" type="matrix" values="0 0 0 0 0 0 0 0 0 0 0 0 0 0 0 0 0 0 127 0" result="hardAlpha"/>
<feOffset/>
<feGaussianBlur stdDeviation="1.2734"/>
<feColorMatrix type="matrix" values="0 0 0 0 1 0 0 0 0 1 0 0 0 0 1 0 0 0 1 0"/>
<feBlend mode="normal" in2="BackgroundImageFix" result="effect1_dropShadow_316_1836"/>
<feColorMatrix in="SourceAlpha" type="matrix" values="0 0 0 0 0 0 0 0 0 0 0 0 0 0 0 0 0 0 127 0" result="hardAlpha"/>
<feOffset/>
<feGaussianBlur stdDeviation="2.54681"/>
<feColorMatrix type="matrix" values="0 0 0 0 1 0 0 0 0 1 0 0 0 0 1 0 0 0 1 0"/>
<feBlend mode="normal" in2="effect1_dropShadow_316_1836" result="effect2_dropShadow_316_1836"/>
<feColorMatrix in="SourceAlpha" type="matrix" values="0 0 0 0 0 0 0 0 0 0 0 0 0 0 0 0 0 0 127 0" result="hardAlpha"/>
<feOffset/>
<feGaussianBlur stdDeviation="8.91383"/>
<feColorMatrix type="matrix" values="0 0 0 0 1 0 0 0 0 1 0 0 0 0 1 0 0 0 1 0"/>
<feBlend mode="normal" in2="effect2_dropShadow_316_1836" result="effect3_dropShadow_316_1836"/>
<feColorMatrix in="SourceAlpha" type="matrix" values="0 0 0 0 0 0 0 0 0 0 0 0 0 0 0 0 0 0 127 0" result="hardAlpha"/>
<feOffset/>
<feGaussianBlur stdDeviation="17.8277"/>
<feColorMatrix type="matrix" values="0 0 0 0 1 0 0 0 0 1 0 0 0 0 1 0 0 0 1 0"/>
<feBlend mode="normal" in2="effect3_dropShadow_316_1836" result="effect4_dropShadow_316_1836"/>
<feColorMatrix in="SourceAlpha" type="matrix" values="0 0 0 0 0 0 0 0 0 0 0 0 0 0 0 0 0 0 127 0" result="hardAlpha"/>
<feOffset/>
<feGaussianBlur stdDeviation="30.5617"/>
<feColorMatrix type="matrix" values="0 0 0 0 1 0 0 0 0 1 0 0 0 0 1 0 0 0 1 0"/>
<feBlend mode="normal" in2="effect4_dropShadow_316_1836" result="effect5_dropShadow_316_1836"/>
<feColorMatrix in="SourceAlpha" type="matrix" values="0 0 0 0 0 0 0 0 0 0 0 0 0 0 0 0 0 0 127 0" result="hardAlpha"/>
<feOffset/>
<feGaussianBlur stdDeviation="53.483"/>
<feColorMatrix type="matrix" values="0 0 0 0 1 0 0 0 0 1 0 0 0 0 1 0 0 0 1 0"/>
<feBlend mode="normal" in2="effect5_dropShadow_316_1836" result="effect6_dropShadow_316_1836"/>
<feBlend mode="normal" in="SourceGraphic" in2="effect6_dropShadow_316_1836" result="shape"/>
</filter>
<filter id="filter6_dddddd_316_1836" x="60.7286" y="18.9881" width="237.033" height="231.235" filterUnits="userSpaceOnUse" color-interpolation-filters="sRGB">
<feFlood flood-opacity="0" result="BackgroundImageFix"/>
<feColorMatrix in="SourceAlpha" type="matrix" values="0 0 0 0 0 0 0 0 0 0 0 0 0 0 0 0 0 0 127 0" result="hardAlpha"/>
<feOffset/>
<feGaussianBlur stdDeviation="1.2734"/>
<feColorMatrix type="matrix" values="0 0 0 0 1 0 0 0 0 1 0 0 0 0 1 0 0 0 1 0"/>
<feBlend mode="normal" in2="BackgroundImageFix" result="effect1_dropShadow_316_1836"/>
<feColorMatrix in="SourceAlpha" type="matrix" values="0 0 0 0 0 0 0 0 0 0 0 0 0 0 0 0 0 0 127 0" result="hardAlpha"/>
<feOffset/>
<feGaussianBlur stdDeviation="2.54681"/>
<feColorMatrix type="matrix" values="0 0 0 0 1 0 0 0 0 1 0 0 0 0 1 0 0 0 1 0"/>
<feBlend mode="normal" in2="effect1_dropShadow_316_1836" result="effect2_dropShadow_316_1836"/>
<feColorMatrix in="SourceAlpha" type="matrix" values="0 0 0 0 0 0 0 0 0 0 0 0 0 0 0 0 0 0 127 0" result="hardAlpha"/>
<feOffset/>
<feGaussianBlur stdDeviation="8.91383"/>
<feColorMatrix type="matrix" values="0 0 0 0 1 0 0 0 0 1 0 0 0 0 1 0 0 0 1 0"/>
<feBlend mode="normal" in2="effect2_dropShadow_316_1836" result="effect3_dropShadow_316_1836"/>
<feColorMatrix in="SourceAlpha" type="matrix" values="0 0 0 0 0 0 0 0 0 0 0 0 0 0 0 0 0 0 127 0" result="hardAlpha"/>
<feOffset/>
<feGaussianBlur stdDeviation="17.8277"/>
<feColorMatrix type="matrix" values="0 0 0 0 1 0 0 0 0 1 0 0 0 0 1 0 0 0 1 0"/>
<feBlend mode="normal" in2="effect3_dropShadow_316_1836" result="effect4_dropShadow_316_1836"/>
<feColorMatrix in="SourceAlpha" type="matrix" values="0 0 0 0 0 0 0 0 0 0 0 0 0 0 0 0 0 0 127 0" result="hardAlpha"/>
<feOffset/>
<feGaussianBlur stdDeviation="30.5617"/>
<feColorMatrix type="matrix" values="0 0 0 0 1 0 0 0 0 1 0 0 0 0 1 0 0 0 1 0"/>
<feBlend mode="normal" in2="effect4_dropShadow_316_1836" result="effect5_dropShadow_316_1836"/>
<feColorMatrix in="SourceAlpha" type="matrix" values="0 0 0 0 0 0 0 0 0 0 0 0 0 0 0 0 0 0 127 0" result="hardAlpha"/>
<feOffset/>
<feGaussianBlur stdDeviation="53.483"/>
<feColorMatrix type="matrix" values="0 0 0 0 1 0 0 0 0 1 0 0 0 0 1 0 0 0 1 0"/>
<feBlend mode="normal" in2="effect5_dropShadow_316_1836" result="effect6_dropShadow_316_1836"/>
<feBlend mode="normal" in="SourceGraphic" in2="effect6_dropShadow_316_1836" result="shape"/>
</filter>
<radialGradient id="paint0_radial_316_1836" cx="0" cy="0" r="1" gradientUnits="userSpaceOnUse" gradientTransform="translate(101.314 132.827) rotate(90) scale(2.82979 14.1489)">
<stop stop-color="#B542FC"/>
<stop offset="0.421875" stop-color="#B542FC" stop-opacity="0.578125"/>
<stop offset="0.526042" stop-color="#B542FC" stop-opacity="0.473958"/>
<stop offset="1" stop-color="#B542FC" stop-opacity="0"/>
</radialGradient>
<radialGradient id="paint1_radial_316_1836" cx="0" cy="0" r="1" gradientUnits="userSpaceOnUse" gradientTransform="translate(140.78 121.293) rotate(90) scale(2.82979 14.1489)">
<stop stop-color="#B542FC"/>
<stop offset="0.421875" stop-color="#B542FC" stop-opacity="0.578125"/>
<stop offset="0.526042" stop-color="#B542FC" stop-opacity="0.473958"/>
<stop offset="1" stop-color="#B542FC" stop-opacity="0"/>
</radialGradient>
<radialGradient id="paint2_radial_316_1836" cx="0" cy="0" r="1" gradientUnits="userSpaceOnUse" gradientTransform="translate(179.245 134.606) rotate(90) scale(2.82979 14.1489)">
<stop stop-color="#B542FC"/>
<stop offset="0.421875" stop-color="#B542FC" stop-opacity="0.578125"/>
<stop offset="0.526042" stop-color="#B542FC" stop-opacity="0.473958"/>
<stop offset="1" stop-color="#B542FC" stop-opacity="0"/>
</radialGradient>
</defs>
</svg>
