<svg width="490" height="480" viewBox="0 0 490 480" fill="none" xmlns="http://www.w3.org/2000/svg">
<g opacity="0.4" filter="url(#filter0_di_500_827)">
<path d="M435 240C435 342.051 350.057 425 245 425C139.943 425 55 342.051 55 240C55 137.949 139.943 55 245 55C350.057 55 435 137.949 435 240Z" stroke="white" stroke-width="10" shape-rendering="crispEdges"/>
</g>
<g opacity="0.4" filter="url(#filter1_f_500_827)">
<path d="M437.5 240C437.5 343.493 351.376 427.5 245 427.5C138.624 427.5 52.5 343.493 52.5 240C52.5 136.507 138.624 52.5 245 52.5C351.376 52.5 437.5 136.507 437.5 240Z" stroke="white" stroke-width="5"/>
</g>
<defs>
<filter id="filter0_di_500_827" x="0" y="0" width="490" height="480" filterUnits="userSpaceOnUse" color-interpolation-filters="sRGB">
<feFlood flood-opacity="0" result="BackgroundImageFix"/>
<feColorMatrix in="SourceAlpha" type="matrix" values="0 0 0 0 0 0 0 0 0 0 0 0 0 0 0 0 0 0 127 0" result="hardAlpha"/>
<feOffset/>
<feGaussianBlur stdDeviation="25"/>
<feComposite in2="hardAlpha" operator="out"/>
<feColorMatrix type="matrix" values="0 0 0 0 0.915663 0 0 0 0 0 0 0 0 0 1 0 0 0 1 0"/>
<feBlend mode="normal" in2="BackgroundImageFix" result="effect1_dropShadow_500_827"/>
<feBlend mode="normal" in="SourceGraphic" in2="effect1_dropShadow_500_827" result="shape"/>
<feColorMatrix in="SourceAlpha" type="matrix" values="0 0 0 0 0 0 0 0 0 0 0 0 0 0 0 0 0 0 127 0" result="hardAlpha"/>
<feOffset/>
<feGaussianBlur stdDeviation="25"/>
<feComposite in2="hardAlpha" operator="arithmetic" k2="-1" k3="1"/>
<feColorMatrix type="matrix" values="0 0 0 0 0.913725 0 0 0 0 0 0 0 0 0 1 0 0 0 1 0"/>
<feBlend mode="normal" in2="shape" result="effect2_innerShadow_500_827"/>
</filter>
<filter id="filter1_f_500_827" x="46" y="46" width="398" height="388" filterUnits="userSpaceOnUse" color-interpolation-filters="sRGB">
<feFlood flood-opacity="0" result="BackgroundImageFix"/>
<feBlend mode="normal" in="SourceGraphic" in2="BackgroundImageFix" result="shape"/>
<feGaussianBlur stdDeviation="2" result="effect1_foregroundBlur_500_827"/>
</filter>
</defs>
</svg>
