<svg width="390" height="844" viewBox="0 0 390 844" fill="none" xmlns="http://www.w3.org/2000/svg">
<g clip-path="url(#clip0_500_485)">
<rect width="390" height="844" fill="#5508B7"/>
<rect x="127" y="831" width="134" height="5" rx="2.5" fill="black"/>
<path opacity="0.8" d="M443 860H66.5014H-156C-29.039 825.416 237.707 715.515 289.003 552.586C340.299 389.657 413.041 412.969 443 444.991V860Z" fill="url(#paint0_linear_500_485)"/>
<path opacity="0.8" d="M455.564 844.602H-64.9365C-72.7698 853.269 -74.6365 839.902 -19.4365 717.102C26.0635 589.602 75.5635 773.602 244.064 767.102C378.864 761.902 441.23 722.936 455.564 704.102V844.602Z" fill="url(#paint1_linear_500_485)"/>
<path opacity="0.8" d="M203 -274C21.8903 -135.116 -231.663 167.18 203 265.293C637.663 363.406 384.11 -53.3553 203 -274Z" fill="url(#paint2_linear_500_485)" fill-opacity="0.68"/>
<path opacity="0.5" d="M-37 541V112C22.5 112 145.1 169.4 159.5 399C173.9 628.6 34.5 589.333 -37 541Z" fill="url(#paint3_linear_500_485)"/>
</g>
<defs>
<linearGradient id="paint0_linear_500_485" x1="442.452" y1="421.935" x2="-222.614" y2="580.366" gradientUnits="userSpaceOnUse">
<stop stop-color="#F9DB6D" stop-opacity="0.26"/>
<stop offset="0.372318" stop-color="#F9DB6D" stop-opacity="0.53"/>
<stop offset="0.689342" stop-color="#F9DB6D" stop-opacity="0.28"/>
</linearGradient>
<linearGradient id="paint1_linear_500_485" x1="-35" y1="759" x2="456" y2="796.5" gradientUnits="userSpaceOnUse">
<stop offset="0.0947578" stop-color="#9888A5" stop-opacity="0.67"/>
<stop offset="0.478378" stop-color="#9888A5" stop-opacity="0.94"/>
<stop offset="1" stop-color="#9888A5" stop-opacity="0.37"/>
</linearGradient>
<linearGradient id="paint2_linear_500_485" x1="5.10511" y1="-247.172" x2="392.346" y2="320.555" gradientUnits="userSpaceOnUse">
<stop stop-color="#3D192D" stop-opacity="0.76"/>
<stop offset="0.346095" stop-color="#381328" stop-opacity="0.65"/>
<stop offset="0.656595" stop-color="#B10839" stop-opacity="0.62"/>
<stop offset="1" stop-color="#E50041" stop-opacity="0.83"/>
</linearGradient>
<linearGradient id="paint3_linear_500_485" x1="-16.5" y1="112" x2="75.5" y2="578" gradientUnits="userSpaceOnUse">
<stop offset="0.161885" stop-color="#2CF6B3" stop-opacity="0.75"/>
<stop offset="0.565359" stop-color="#2CF6B3" stop-opacity="0.41"/>
<stop offset="1" stop-color="#2CF6B3" stop-opacity="0.74"/>
</linearGradient>
<clipPath id="clip0_500_485">
<rect width="390" height="844" fill="white"/>
</clipPath>
</defs>
</svg>
